HIERARCHY
ROOT hip
{
	OFFSET 0.000000 0.000000 0.000000
	CHANNELS 6 Xposition Yposition Zposition Xrotation Zrotation Yrotation 
	JOINT abdomen
	{
		OFFSET 0.000000 3.422050 0.000000
		CHANNELS 3 Xrotation Zrotation Yrotation 
		JOINT chest
		{
			OFFSET 0.000000 8.486693 -0.684411
			CHANNELS 3 Xrotation Zrotation Yrotation 
			JOINT neck
			{
				OFFSET 0.000000 10.266162 -0.273764
				CHANNELS 3 Xrotation Zrotation Yrotation 
				JOINT head
				{
					OFFSET 0.000000 3.148285 0.000000
					CHANNELS 3 Xrotation Zrotation Yrotation 
					End Site
					{
						OFFSET 0.000000 3.148289 0.000000
					}
				}
			}
			JOINT lCollar
			{
				OFFSET 3.422053 6.707223 -0.821293
				CHANNELS 3 Yrotation Zrotation Xrotation 
				JOINT lShldr
				{
					OFFSET 3.285171 0.000000 0.000000
					CHANNELS 3 Zrotation Yrotation Xrotation 
					JOINT lForeArm
					{
						OFFSET 10.129278 0.000000 0.000000
						CHANNELS 3 Yrotation Zrotation Xrotation 
						JOINT lHand
						{
							OFFSET 8.486692 0.000000 0.000000
							CHANNELS 3 Zrotation Yrotation Xrotation 
							End Site
							{
								OFFSET 4.106464 0.000000 0.000000
							}
						}
					}
				}
			}
			JOINT rCollar
			{
				OFFSET -3.558935 6.707223 -0.821293
				CHANNELS 3 Yrotation Zrotation Xrotation 
				JOINT rShldr
				{
					OFFSET -3.148289 0.000000 0.000000
					CHANNELS 3 Zrotation Yrotation Xrotation 
					JOINT rForeArm
					{
						OFFSET -10.266159 0.000000 0.000000
						CHANNELS 3 Yrotation Zrotation Xrotation 
						JOINT rHand
						{
							OFFSET -8.349810 0.000000 0.000000
							CHANNELS 3 Zrotation Yrotation Xrotation 
							End Site
							{
								OFFSET -4.106464 0.000000 0.000000
							}
						}
					}
				}
			}
		}
	}
	JOINT lThigh
	{
		OFFSET 5.338403 -1.642589 1.368821
		CHANNELS 3 Xrotation Zrotation Yrotation 
		JOINT lShin
		{
			OFFSET -2.053232 -20.121670 0.000000
			CHANNELS 3 Xrotation Zrotation Yrotation 
			JOINT lFoot
			{
				OFFSET 0.000000 -19.300380 -1.231939
				CHANNELS 3 Xrotation Yrotation Zrotation 
				End Site
				{
					OFFSET 0.000000 -2.463878 4.653993
				}
			}
		}
	}
	JOINT rThigh
	{
		OFFSET -5.338403 -1.642589 1.368821
		CHANNELS 3 Xrotation Zrotation Yrotation 
		JOINT rShin
		{
			OFFSET 2.053232 -20.121670 0.000000
			CHANNELS 3 Xrotation Zrotation Yrotation 
			JOINT rFoot
			{
				OFFSET 0.000000 -19.300380 -1.231939
				CHANNELS 3 Xrotation Yrotation Zrotation 
				End Site
				{
					OFFSET 0.000000 -2.463878 4.653993
				}
			}
		}
	}
}
MOTION
Frames: 6
Frame Time: 0.066530
0.000000 3.996296 -28.003838 -90.001877 0.000000 0.000000 20.338236 0.000000 0.000000 47.248013 -0.144749 -0.729378 28.180853 12.544197 0.007371 -6.009943 17.396816 -4.649219 3.798903 7.172260 -12.128678 -76.391197 2.885757 -14.248306 -94.990486 -6.052962 -18.976442 -19.901936 16.003782 15.985162 -4.610166 -6.914642 -12.350438 79.342384 -30.701885 -0.305718 76.284325 2.873922 33.949890 4.368662 0.851344 21.540903 -2.700035 19.135189 0.064464 12.252028 -1.375347 -0.178434 13.611595 2.328721 5.489282 -2.241687 -18.988543 -0.183680 12.112967 1.385173 0.167508 13.611374 -2.332613 -5.492354 
0.000000 3.996296 -28.003838 -90.001877 0.000000 0.000000 20.275461 0.000000 0.000000 47.248013 -0.144749 -0.729378 28.248877 12.498751 0.006728 -5.838730 17.947599 -4.769759 3.798903 7.172260 -12.128677 -76.391197 2.885757 -14.248306 -94.990486 -6.052962 -18.976442 -19.901937 16.003784 15.985162 -4.610166 -6.914642 -12.350437 79.393578 -30.709494 -0.326375 76.284256 2.873919 33.949905 4.316691 0.871061 21.500040 -2.678022 19.143133 0.069493 12.292085 -1.363417 -0.180138 13.611595 2.328721 5.489282 -2.248791 -18.984409 -0.182109 12.090570 1.392174 0.166554 13.611374 -2.332613 -5.492354 
0.000000 3.996296 -28.003838 -90.001877 0.000000 0.000000 20.212694 0.000000 0.000000 47.248013 -0.144749 -0.729378 28.316887 12.453306 0.006031 -5.668298 18.498386 -4.888874 3.798903 7.172260 -12.128678 -76.391197 2.885757 -14.248306 -94.990486 -6.052962 -18.976442 -19.901939 16.003784 15.985162 -4.610166 -6.914642 -12.350438 79.444771 -30.717093 -0.347033 76.284195 2.873919 33.949932 4.264704 0.890740 21.459164 -2.656007 19.151073 0.074526 12.332142 -1.351486 -0.181834 13.611595 2.328721 5.489282 -2.255895 -18.980272 -0.180538 12.068176 1.399174 0.165598 13.611374 -2.332613 -5.492354 
0.000000 3.996296 -28.003838 -90.001877 0.000000 0.000000 20.149920 0.000000 0.000000 47.248013 -0.144749 -0.729378 28.384892 12.407866 0.005278 -5.498633 19.049150 -5.006569 3.798903 7.172260 -12.128678 -76.391197 2.885757 -14.248306 -94.990486 -6.052962 -18.976442 -19.901939 16.003784 15.985162 -4.610166 -6.914642 -12.350438 79.495987 -30.724678 -0.367705 76.284126 2.873915 33.949947 4.212704 0.910383 21.418274 -2.633991 19.159016 0.079562 12.372199 -1.339555 -0.183521 13.611595 2.328721 5.489282 -2.263000 -18.976145 -0.178968 12.045775 1.406174 0.164639 13.611374 -2.332613 -5.492354 
0.000000 3.996296 -28.003838 -90.001877 0.000000 0.000000 20.087151 0.000000 0.000000 47.248013 -0.144749 -0.729378 28.452881 12.362428 0.004470 -5.329714 19.599840 -5.122846 3.798903 7.172260 -12.128678 -76.391197 2.885757 -14.248306 -94.990486 -6.052962 -18.976442 -19.901939 16.003784 15.985162 -4.610166 -6.914642 -12.350438 79.547195 -30.732239 -0.388389 76.284065 2.873910 33.949966 4.160688 0.929989 21.377359 -2.611972 19.166954 0.084602 12.412252 -1.327622 -0.185200 13.611595 2.328721 5.489282 -2.270103 -18.972008 -0.177399 12.023381 1.413173 0.163677 13.611373 -2.332613 -5.492353 
0.000000 3.996296 -28.003838 -90.001877 0.000000 0.000000 20.024374 0.000000 0.000000 47.248013 -0.144749 -0.729378 28.520857 12.316990 0.003607 -5.161528 20.150429 -5.237710 3.798903 7.172260 -12.128678 -76.391197 2.885757 -14.248306 -94.990486 -6.052962 -18.976442 -19.901939 16.003784 15.985162 -4.610166 -6.914642 -12.350438 79.598419 -30.739790 -0.409080 76.284012 2.873911 33.949997 4.108657 0.949557 21.336424 -2.589952 19.174889 0.089645 12.452307 -1.315687 -0.186871 13.611595 2.328721 5.489282 -2.277206 -18.967876 -0.175830 12.000980 1.420172 0.162713 13.611375 -2.332613 -5.492354 
